<svg width="1930" height="1148" viewBox="0 0 1930 1148" fill="none" xmlns="http://www.w3.org/2000/svg" xmlns:xlink="http://www.w3.org/1999/xlink">
<path d="M1120,2L1120.886,2.463L1121.684,0.933L1119.96,1.001L1120,2ZM1,46L0.961,45.001L-0.334,45.052L0.043,46.291L1,46ZM374,855L373.52,855.878L374,855ZM1834,938L1833.842,938.988L1834.158,937.012L1834,938ZM987,803.104L987.156,802.116L987,803.104ZM823.886,571.462L1120.886,2.463L1119.114,1.537L822.114,570.538L823.886,571.462ZM1119.96,1.001L0.961,45.001L1.039,46.999L1120.04,2.999L1119.96,1.001ZM0.043,46.291C36.883,167.313 99.745,352.998 168.603,516.738C203.032,598.606 238.97,675.012 273.914,735.116C291.386,765.166 308.62,791.16 325.306,811.73C341.98,832.288 358.154,847.486 373.52,855.878L374.48,854.122C359.446,845.914 343.466,830.944 326.858,810.47C310.26,790.008 293.084,764.108 275.642,734.11C240.76,674.112 204.86,597.794 170.447,515.962C101.622,352.302 38.783,166.687 1.957,45.709L0.043,46.291ZM373.52,855.878C449.57,897.404 650.372,992.428 857.428,1062.822C960.956,1098.018 1066.084,1127.072 1157.984,1140.194C1249.826,1153.306 1328.682,1150.546 1379.492,1121.87L1378.508,1120.13C1328.318,1148.454 1250.05,1151.318 1158.266,1138.214C1066.54,1125.116 961.544,1096.106 858.072,1060.928C651.128,990.572 450.43,895.596 374.48,854.122L373.52,855.878ZM1379.492,1121.87C1429.946,1093.396 1492.714,1064.98 1557.652,1035.08C1622.57,1005.192 1689.644,973.83 1748.628,939.49C1807.602,905.156 1858.576,867.798 1891.242,825.88C1923.936,783.926 1938.316,737.356 1923.964,684.736L1922.036,685.264C1936.184,737.144 1922.064,783.074 1889.664,824.65C1857.236,866.264 1806.524,903.468 1747.622,937.76C1688.732,972.046 1621.742,1003.372 1556.816,1033.264C1491.912,1063.146 1429.054,1091.604 1378.508,1120.13L1379.492,1121.87ZM1923.964,684.736C1909.756,632.636 1908.5,576.258 1910.202,522C1911.902,467.808 1916.564,415.626 1914.124,372.194C1911.684,328.772 1902.136,293.666 1875.076,273.85C1848.026,254.042 1803.826,249.764 1732.764,267.028L1733.236,268.972C1804.174,251.736 1847.598,256.208 1873.894,275.464C1900.176,294.71 1909.692,328.978 1912.126,372.306C1914.56,415.624 1909.91,467.566 1908.204,521.938C1906.5,576.242 1907.744,632.864 1922.036,685.264L1923.964,684.736ZM1732.764,267.028C1448.674,336.05 803.574,602.094 740.632,627.07L741.368,628.93C804.426,603.906 1449.326,337.95 1733.236,268.972L1732.764,267.028ZM740.632,627.07C709.176,639.552 631.984,663.286 566.45,683.922C533.702,694.232 503.874,703.77 484.166,710.728C474.33,714.204 466.958,717.054 463.01,719.05C462.022,719.55 461.212,720.014 460.624,720.436C460.33,720.648 460.064,720.866 459.854,721.094C459.656,721.308 459.43,721.61 459.344,721.992C459.244,722.454 459.376,722.906 459.696,723.242C459.966,723.522 460.314,723.668 460.602,723.756C461.192,723.934 462.014,724 463,724L463,722C462.05,722 461.474,721.93 461.18,721.842C461.026,721.794 461.062,721.776 461.142,721.858C461.274,721.998 461.342,722.222 461.298,722.422C461.27,722.546 461.222,722.558 461.32,722.452C461.406,722.36 461.554,722.23 461.788,722.062C462.256,721.726 462.96,721.318 463.912,720.836C467.728,718.906 474.982,716.094 484.834,712.614C504.502,705.668 534.298,696.142 567.05,685.828C632.516,665.214 709.824,641.448 741.368,628.93L740.632,627.07ZM463,724C464.46,724 469.31,724.542 477.352,725.606C485.35,726.664 496.42,728.226 510.242,730.242C537.888,734.27 576.532,740.106 623.616,747.334C717.782,761.792 845.692,781.818 986.844,804.092L987.156,802.116C846.002,779.842 718.088,759.816 623.92,745.358C576.834,738.13 538.184,732.292 510.53,728.262C496.706,726.248 485.626,724.684 477.614,723.624C469.648,722.57 464.628,722 463,722L463,724ZM986.844,804.092C1271.348,848.988 1609.642,903.016 1833.842,938.988L1834.158,937.012C1609.958,901.04 1271.662,847.012 987.156,802.116L986.844,804.092ZM1834.158,937.012L987.158,802.116L986.842,804.092L1833.842,938.988L1834.158,937.012ZM986,803.104L986,1013L988,1013L988,803.104L986,803.104Z" fill="#000000"/>
</svg>
