<svg width="1328" height="1256" viewBox="0 0 1328 1256" fill="none" xmlns="http://www.w3.org/2000/svg" xmlns:xlink="http://www.w3.org/1999/xlink">
<path d="M194,1006L193.663,1005.058L190.377,1006.232L193.787,1006.976L194,1006ZM1326,1253L1325.786,1253.978L1327.048,1254.252L1327,1252.962L1326,1253ZM1290,305L1291,304.962L1290.966,304.11L1290.12,304.008L1290,305ZM-0.191,305.982C85.415,322.636 344.698,387.354 696.664,512.942L697.336,511.058C345.302,385.446 85.919,320.696 0.191,304.018L-0.191,305.982ZM696.664,512.942C740.594,528.618 770.48,546.29 788.618,565.37C806.718,584.412 813.122,604.858 810.12,626.24C807.108,647.68 794.618,670.184 774.66,693.226C754.712,716.258 727.37,739.748 694.792,763.162C564.452,856.836 350.81,948.898 193.663,1005.058L194.337,1006.942C351.524,950.768 565.382,858.63 695.958,764.788C728.608,741.322 756.084,717.728 776.172,694.536C796.25,671.354 809.012,648.5 812.1,626.518C815.196,604.474 808.546,583.432 790.066,563.992C771.624,544.588 741.406,526.782 697.336,511.058L696.664,512.942ZM193.787,1006.976L1325.786,1253.978L1326.214,1252.022L194.213,1005.024L193.787,1006.976ZM1327,1252.962L1291,304.962L1289,305.038L1325,1253.038L1327,1252.962ZM1290.12,304.008C1085.786,279.174 777.682,242.624 517.46,213.682C387.35,199.21 269.206,186.641 181.988,178.389C138.38,174.263 102.495,171.216 76.707,169.55C63.816,168.717 53.435,168.229 45.871,168.125C42.09,168.073 38.997,168.116 36.639,168.263C34.337,168.406 32.584,168.653 31.599,169.084L32.401,170.916C33.016,170.647 34.422,170.404 36.763,170.259C39.049,170.117 42.085,170.073 45.843,170.125C53.357,170.228 63.698,170.714 76.579,171.546C102.336,173.21 138.197,176.255 181.8,180.38C269.002,188.63 387.132,201.198 517.24,215.668C777.452,244.61 1085.548,281.16 1289.88,305.992L1290.12,304.008ZM31.599,169.084C31.377,169.181 31.137,169.302 30.944,169.455C30.849,169.53 30.707,169.658 30.6,169.848C30.48,170.059 30.39,170.38 30.504,170.736C30.608,171.059 30.829,171.246 30.967,171.338C31.109,171.434 31.255,171.49 31.364,171.526C31.586,171.597 31.843,171.638 32.098,171.666C33.114,171.776 34.957,171.747 37.512,171.609C42.668,171.33 51.02,170.584 62.226,169.421C84.647,167.095 118.563,163.09 161.354,157.78C246.94,147.158 368.056,131.308 503.782,113.191C775.234,76.958 1105.136,31.657 1326.138,0.991L1325.862,-0.991C1104.864,29.676 774.966,74.976 503.518,111.209C367.794,129.325 246.684,145.175 161.108,155.795C118.318,161.105 84.419,165.107 62.019,167.432C50.815,168.595 42.506,169.336 37.403,169.612C34.829,169.751 33.143,169.767 32.313,169.678C32.106,169.655 32.007,169.631 31.978,169.622C31.963,169.617 32.01,169.63 32.081,169.677C32.146,169.721 32.323,169.857 32.408,170.124C32.505,170.424 32.424,170.685 32.34,170.833C32.269,170.959 32.19,171.019 32.186,171.022C32.173,171.032 32.223,170.994 32.401,170.916L31.599,169.084Z" fill="#000000"/>
</svg>
